<svg xmlns="http://www.w3.org/2000/svg" viewBox="0 0 129.7 42.4"><defs><style>.logo-a{fill:#3aaad1;}.logo-a,.logo-c,.logo-d,.logo-e{fill-rule:evenodd;}.logo-b{fill:none;}.logo-c{fill:#424c50;}.logo-d{fill:#58abc8;}.logo-e{fill:#b3b2b3;}</style></defs><path class="logo-a" d="M79.6,40.4l.9.8V4.6l-.9-.3Z"/><path class="logo-b" d="M122.6,24.5Z"/><path class="logo-c" d="M67.6,24.8c0-1.7.1-3.4,0-5a2.713,2.713,0,0,0-2.4-2.7c-1.1-.1-2.3,0-3.5,0v7.7ZM48.8,15.4h1.8v9.4h9.1V15.4c2.4.1,4.7-.3,6.9.3a3.621,3.621,0,0,1,2.6,3.2c.2,2.5,0,5,0,7.5H29c-3.3,0-4.2-.9-4.2-4.2V10h1.8V22.7c0,1.7.4,2.1,2.1,2.1H37V16.2h1.8v8.6h4.1V16.2h1.9v8.6h4Z"/><path class="logo-c" d="M10,24.8h9.5V15.4h1.8v11H0V24.8H8.3a58.484,58.484,0,0,0-.4-6C7.7,17.6,6.6,17,5,16.9H1.7V15.4a41.7,41.7,0,0,1,5,0c2,.3,3.1,1.8,3.2,3.9.1,1.4,0,2.9,0,4.3a5.284,5.284,0,0,1,.1,1.2"/><path class="logo-c" d="M10.3,29.4v9.8H9.1V30.8H9c-.1.2-.2.3-.2.5-.9,2.5-1.8,4.9-2.7,7.4a.585.585,0,0,1-.8.5H4.8c-.3.1-.5-.1-.6-.4-.9-2.5-1.9-5.1-2.8-7.6a.758.758,0,0,0-.2-.4v8.4H.1V29.4H2L5.1,38a9.44,9.44,0,0,1,.3-.9c.9-2.4,1.8-4.8,2.7-7.3a.666.666,0,0,1,.7-.5,7.569,7.569,0,0,0,1.5.1m31.1,0h1.2c.2,0,.3.2.4.4,1.6,2.4,3.1,4.8,4.7,7.2a1.756,1.756,0,0,0,.4.5v-8h1.1v9.8H48c-.1,0-.3-.2-.4-.3-1.6-2.4-3.2-4.8-4.7-7.3a6.125,6.125,0,0,0-.4-.6v8.2H41.4Zm20.8,1v7.8h2.7c1.8-.1,2.8-.8,3-2.3a16.045,16.045,0,0,0,0-3.1,2.342,2.342,0,0,0-2-2.2C64.7,30.5,63.5,30.5,62.2,30.4ZM61,29.5c1.7,0,3.3-.1,4.9,0a3.51,3.51,0,0,1,3.2,3,8.734,8.734,0,0,1,0,3.6,3.637,3.637,0,0,1-3.8,3.1c-1.4.1-2.8,0-4.3,0V29.5Zm-48-.1h1.2v6c0,2.1.7,2.8,2.8,2.8h2.4V29.4h1.2v9.7a.1.1,0,0,1-.1.1c-1.5,0-3,.1-4.4,0a2.834,2.834,0,0,1-3-3c-.2-2.2-.1-4.5-.1-6.8m22.4,1.3h-.1l-1.8,4.9h3.8l-1.9-4.9m-4.6,8.6,3.8-9.8h.1c1.3-.1,1.3-.1,1.7,1.1,1.1,2.7,2.1,5.4,3.2,8.2a4.17,4.17,0,0,1,.2.6H38.7a.451.451,0,0,1-.3-.3c-.2-.6-.5-1.2-.7-1.9-.1-.3-.2-.4-.6-.4H33.4a.548.548,0,0,0-.6.4,11.5,11.5,0,0,0-.6,1.7c-.1.4-.3.5-.7.5-.1-.2-.4-.1-.7-.1m-1.3-9.8v1H25.4a1.4,1.4,0,0,0-1.3,1.6,1.468,1.468,0,0,0,1.3,1.6h1.7c2.4.1,3,1.5,2.7,3.4a2.2,2.2,0,0,1-2.2,2.1c-1.5.1-3.1,0-4.6,0v-1h3.8c1.3,0,1.8-.6,1.8-1.9a1.368,1.368,0,0,0-1.5-1.5H25.4c-2.1-.1-2.8-1.4-2.6-3.2a2.1,2.1,0,0,1,2.3-2.1c1.5-.1,3,0,4.4,0M59.4,38H52.9V35.1h5.9V33.8H53v-3h5.9V29.6H51.8v9.8h7.7Z"/><path class="logo-b" d="M91.6,15.3h3.5V10.5L91.6,12Z"/><path class="logo-c" d="M19.6,11.9c-.1,0-.1,0-.1.1v1.7c0,.1,0,.1.1.1h1.5c.1,0,.1,0,.1-.1V12c0-.1,0-.1-.1-.1Z"/><path class="logo-d" d="M122.8,24.5h-8.7l-3.5,3.6h0v8H95V10.5l12.9-5.7,2.4-1L106,1.9,91.5,8.2l.1,27.9L95,39.6h0v-.1l.1.1h15.5l3.6,2.8V39.6h8.6V36.1h-8.6v-8h8.6V39.6h0l3.6-3.5V28Z"/><path class="logo-e" d="M110.2,0h0l-4.4,1.9,20.3,8.8h0v4.8h3.6V8.6h0Z"/></svg>